<?xml version="1.0" encoding="UTF-8"?>
<!DOCTYPE svg PUBLIC "-//W3C//DTD SVG 1.1//EN" "http://www.w3.org/Graphics/SVG/1.1/DTD/svg11.dtd">
<svg xmlns="http://www.w3.org/2000/svg" version="1.1" width="256px" height="256px" style="shape-rendering:geometricPrecision; text-rendering:geometricPrecision; image-rendering:optimizeQuality; fill-rule:evenodd; clip-rule:evenodd" xmlns:xlink="http://www.w3.org/1999/xlink">
<g><path style="opacity:1" fill="#75c7f1" d="M 197.5,155.5 C 196.493,157.57 196.826,159.57 198.5,161.5C 201.086,162.48 203.753,162.813 206.5,162.5C 204.631,163.165 202.631,163.831 200.5,164.5C 203.254,169.008 205.754,173.674 208,178.5C 208.908,180.439 210.408,181.439 212.5,181.5C 211.918,182.931 211.085,184.264 210,185.5C 209.667,185.167 209.333,184.833 209,184.5C 208.667,185.5 208.333,186.5 208,187.5C 207.252,185.249 205.752,183.916 203.5,183.5C 198.599,180.413 193.266,178.08 187.5,176.5C 186.304,176.846 186.304,177.346 187.5,178C 191.39,180.947 195.723,182.78 200.5,183.5C 193.181,184.359 185.848,185.692 178.5,187.5C 178.565,180.095 176.899,173.095 173.5,166.5C 174.167,164.833 174.833,163.167 175.5,161.5C 175.154,160.304 174.654,160.304 174,161.5C 173.667,159.833 173.333,158.167 173,156.5C 172.085,157.328 171.419,158.328 171,159.5C 168.574,156.309 166.407,152.975 164.5,149.5C 165.122,148.373 165.955,147.373 167,146.5C 169.632,149.192 171.966,148.859 174,145.5C 174.906,147.612 176.406,148.445 178.5,148C 180.466,146.54 182.132,144.873 183.5,143C 183.167,142.5 182.833,142 182.5,141.5C 180.999,142.752 179.332,143.752 177.5,144.5C 176.167,143.5 174.833,142.5 173.5,141.5C 171.952,144.951 169.952,145.284 167.5,142.5C 165.851,143.648 164.351,144.981 163,146.5C 162.517,145.552 162.351,144.552 162.5,143.5C 161.041,143.433 159.708,143.766 158.5,144.5C 153.064,138.778 146.397,135.112 138.5,133.5C 137.413,129.427 134.746,127.761 130.5,128.5C 130.441,131.049 131.441,133.049 133.5,134.5C 132.68,136.111 131.346,136.778 129.5,136.5C 129.853,134.365 129.02,133.032 127,132.5C 125.133,133.377 123.966,134.877 123.5,137C 122.551,137.617 121.718,137.451 121,136.5C 122.349,134.195 123.182,131.529 123.5,128.5C 119.693,127.774 117.026,129.107 115.5,132.5C 106.964,133.777 99.6306,137.777 93.5,144.5C 93.2172,145.289 92.7172,145.956 92,146.5C 91,145.167 90,143.833 89,142.5C 86.9656,144.032 84.7989,145.365 82.5,146.5C 81.7193,145.263 80.7193,144.263 79.5,143.5C 76.407,145.034 73.7403,147.034 71.5,149.5C 69.4362,149.238 68.1029,148.071 67.5,146C 65.8659,145.506 64.1992,145.34 62.5,145.5C 61.3065,144.728 60.3065,143.728 59.5,142.5C 61.0744,142.063 62.2411,141.063 63,139.5C 67.0534,132.062 70.5534,124.395 73.5,116.5C 71.0478,113.037 68.0478,112.704 64.5,115.5C 64.1667,115.167 63.8333,114.833 63.5,114.5C 64.5,113.667 65.5,112.833 66.5,112C 63.4221,110.589 61.4221,108.256 60.5,105C 60.9054,104.055 61.572,103.388 62.5,103C 59.9423,99.1513 59.609,95.318 61.5,91.5C 59.9821,84.7632 58.1487,78.0965 56,71.5C 54.9542,69.9095 53.7875,68.4095 52.5,67C 55.8868,65.1266 59.0535,65.6266 62,68.5C 62.3333,67.5 62.6667,66.5 63,65.5C 63.7412,66.6405 64.5745,66.6405 65.5,65.5C 66.9744,66.4363 67.9744,67.7697 68.5,69.5C 75.68,70.6361 82.68,72.4695 89.5,75C 94.1337,78.6321 98.467,82.6321 102.5,87C 107.887,90.5301 113.554,93.1967 119.5,95C 111.401,88.9049 103.901,82.0716 97,74.5C 105.844,52.1607 115.01,29.8274 124.5,7.5C 129.947,18.1752 134.613,29.1752 138.5,40.5C 140.492,40.6715 142.158,40.0049 143.5,38.5C 144.578,40.4747 144.245,42.308 142.5,44C 143.5,44.3333 144.5,44.6667 145.5,45C 143.388,45.9057 142.555,47.4057 143,49.5C 147.737,59.8759 152.57,70.2093 157.5,80.5C 158.025,81.1924 158.692,81.6924 159.5,82C 165.931,79.6378 172.598,77.6378 179.5,76C 186.191,75.8309 192.858,75.3309 199.5,74.5C 201.193,73.7717 202.693,72.7717 204,71.5C 205.778,73.0067 207.611,73.8401 209.5,74C 208.392,76.1124 206.892,77.9458 205,79.5C 202.252,87.1013 198.752,94.2679 194.5,101C 196.891,101.691 196.891,102.691 194.5,104C 195.308,104.308 195.975,104.808 196.5,105.5C 191.695,109.977 186.362,113.644 180.5,116.5C 179.304,117.559 178.637,118.893 178.5,120.5C 182.709,129.919 187.209,139.253 192,148.5C 193.391,151.336 195.224,153.669 197.5,155.5 Z M 203.5,183.5 C 202.5,183.5 201.5,183.5 200.5,183.5C 195.723,182.78 191.39,180.947 187.5,178C 186.304,177.346 186.304,176.846 187.5,176.5C 193.266,178.08 198.599,180.413 203.5,183.5 Z"/></g>
<g><path style="opacity:1" fill="#2599d3" d="M 60.5,72.5 C 61.2506,71.4265 62.2506,71.2599 63.5,72C 71.1086,74.4226 78.442,77.4226 85.5,81C 87.5797,83.3541 89.0797,85.8541 90,88.5C 89.1627,86.9926 87.9961,86.4926 86.5,87C 87.7433,88.1545 88.7433,89.4878 89.5,91C 87.1489,90.8596 84.8155,90.3596 82.5,89.5C 82.3568,92.0974 81.5234,94.4308 80,96.5C 79.6667,95.8333 79.3333,95.1667 79,94.5C 75.9833,97.5347 74.3166,101.201 74,105.5C 69.5804,102.071 66.2471,97.7375 64,92.5C 62.9813,85.683 61.8147,79.0164 60.5,72.5 Z"/></g>
<g><path style="opacity:1" fill="#2699d4" d="M 190.5,77.5 C 193.685,77.0196 196.519,77.6863 199,79.5C 197.808,87.5781 195.141,95.2448 191,102.5C 187.946,106.067 184.113,108.067 179.5,108.5C 179.24,102.143 176.906,96.6431 172.5,92C 174.5,92 176.5,92 178.5,92C 177.542,90.8525 177.875,89.8525 179.5,89C 177.5,88.6667 175.5,88.3333 173.5,88C 178.972,83.9432 184.639,80.4432 190.5,77.5 Z"/></g>
<g><path style="opacity:1" fill="#1c5674" d="M 83.5,112.5 C 90.0006,115.084 96.3339,118.25 102.5,122C 106.701,125.523 106.368,128.523 101.5,131C 96.2884,134.105 90.9551,136.939 85.5,139.5C 83.2956,139.473 82.4622,138.473 83,136.5C 88.2532,133.124 93.4198,129.624 98.5,126C 94.3339,123.083 90.0006,120.416 85.5,118C 83.8446,116.556 83.178,114.722 83.5,112.5 Z"/></g>
<g><path style="opacity:1" fill="#1c5674" d="M 167.5,112.5 C 168.833,112.5 170.167,112.5 171.5,112.5C 171.785,114.288 171.452,115.955 170.5,117.5C 165.965,120.532 161.298,123.365 156.5,126C 160.827,129.499 165.494,132.499 170.5,135C 171.38,136.356 171.714,137.856 171.5,139.5C 169.011,139.702 166.677,139.202 164.5,138C 158.542,134.692 153.209,130.692 148.5,126C 148.759,124.739 149.426,123.739 150.5,123C 156.901,120.477 162.568,116.977 167.5,112.5 Z"/></g>
<g><path style="opacity:1" fill="#a47553" d="M 62.5,147.5 C 65.7279,150.306 68.7279,153.306 71.5,156.5C 72.1098,157.391 72.4431,158.391 72.5,159.5C 72.4431,160.609 72.1098,161.609 71.5,162.5C 69.8185,164.008 67.8185,165.008 65.5,165.5C 64.391,165.443 63.391,165.11 62.5,164.5C 59.1667,160.167 55.8333,155.833 52.5,151.5C 51.8333,149.833 51.1667,148.167 50.5,146.5C 47.8546,141.218 44.688,136.218 41,131.5C 39.9914,129.975 39.4914,128.308 39.5,126.5C 41.1992,126.34 42.8659,126.506 44.5,127C 50.7161,133.711 56.7161,140.545 62.5,147.5 Z"/></g>
<g><path style="opacity:1" fill="#7a6b62" d="M 59.5,142.5 C 60.3065,143.728 61.3065,144.728 62.5,145.5C 62.5,146.167 62.5,146.833 62.5,147.5C 56.7161,140.545 50.7161,133.711 44.5,127C 42.8659,126.506 41.1992,126.34 39.5,126.5C 39.4914,128.308 39.9914,129.975 41,131.5C 44.688,136.218 47.8546,141.218 50.5,146.5C 49.8333,146.167 49.1667,145.833 48.5,145.5C 48.0679,144.29 47.4013,143.29 46.5,142.5C 43.313,137.807 40.313,132.973 37.5,128C 39.9349,123.916 43.1016,123.416 47,126.5C 50.9996,131.995 55.1663,137.329 59.5,142.5 Z"/></g>
<g><path style="opacity:1" fill="#1d5673" d="M 138.5,133.5 C 138.358,136.617 137.024,139.117 134.5,141C 130.311,141.336 126.144,141.836 122,142.5C 117.103,141.057 114.936,137.724 115.5,132.5C 117.026,129.107 119.693,127.774 123.5,128.5C 123.182,131.529 122.349,134.195 121,136.5C 121.718,137.451 122.551,137.617 123.5,137C 123.966,134.877 125.133,133.377 127,132.5C 129.02,133.032 129.853,134.365 129.5,136.5C 131.346,136.778 132.68,136.111 133.5,134.5C 131.441,133.049 130.441,131.049 130.5,128.5C 134.746,127.761 137.413,129.427 138.5,133.5 Z"/></g>
<g><path style="opacity:1" fill="#b4e5fe" d="M 115.5,132.5 C 114.936,137.724 117.103,141.057 122,142.5C 126.144,141.836 130.311,141.336 134.5,141C 137.024,139.117 138.358,136.617 138.5,133.5C 146.397,135.112 153.064,138.778 158.5,144.5C 157.524,145.815 156.524,147.148 155.5,148.5C 157.259,149.754 158.759,149.421 160,147.5C 161.11,149.037 162.61,149.703 164.5,149.5C 166.407,152.975 168.574,156.309 171,159.5C 171.419,158.328 172.085,157.328 173,156.5C 173.333,158.167 173.667,159.833 174,161.5C 174.654,160.304 175.154,160.304 175.5,161.5C 174.833,163.167 174.167,164.833 173.5,166.5C 176.899,173.095 178.565,180.095 178.5,187.5C 168.606,188.537 158.94,190.537 149.5,193.5C 150.79,186.551 150.123,179.884 147.5,173.5C 149.509,169.18 148.176,166.847 143.5,166.5C 144.278,165.844 144.944,165.011 145.5,164C 143.518,156.365 139.518,150.032 133.5,145C 122.445,141.183 114.112,144.35 108.5,154.5C 109.034,156.614 110.034,158.448 111.5,160C 110.049,159.737 108.716,159.904 107.5,160.5C 106.863,162.303 105.697,163.636 104,164.5C 103.392,166.154 102.892,167.821 102.5,169.5C 99.5176,169.037 96.5176,168.704 93.5,168.5C 90.9661,166.831 88.2994,165.164 85.5,163.5C 84.1667,161.833 82.8333,160.167 81.5,158.5C 84.2546,155.083 86.588,151.417 88.5,147.5C 89.2674,148.172 89.9341,149.005 90.5,150C 91.1667,150.667 91.8333,150.667 92.5,150C 95.1322,147.873 97.4655,145.54 99.5,143C 99.1667,142.5 98.8333,142 98.5,141.5C 97.0603,142.952 95.3936,143.952 93.5,144.5C 99.6306,137.777 106.964,133.777 115.5,132.5 Z"/></g>
<g><path style="opacity:1" fill="#edaecb" d="M 88.5,147.5 C 88.5654,147.062 88.3988,146.728 88,146.5C 85.9896,147.848 83.9896,149.182 82,150.5C 80.416,150.012 79.2494,149.012 78.5,147.5C 76.1917,147.965 74.8584,149.299 74.5,151.5C 72.9731,151.573 71.9731,150.906 71.5,149.5C 73.7403,147.034 76.407,145.034 79.5,143.5C 80.7193,144.263 81.7193,145.263 82.5,146.5C 84.7989,145.365 86.9656,144.032 89,142.5C 90,143.833 91,145.167 92,146.5C 92.7172,145.956 93.2172,145.289 93.5,144.5C 95.3936,143.952 97.0603,142.952 98.5,141.5C 98.8333,142 99.1667,142.5 99.5,143C 97.4655,145.54 95.1322,147.873 92.5,150C 91.8333,150.667 91.1667,150.667 90.5,150C 89.9341,149.005 89.2674,148.172 88.5,147.5 Z"/></g>
<g><path style="opacity:1" fill="#f3b0ce" d="M 164.5,149.5 C 162.61,149.703 161.11,149.037 160,147.5C 158.759,149.421 157.259,149.754 155.5,148.5C 156.524,147.148 157.524,145.815 158.5,144.5C 159.708,143.766 161.041,143.433 162.5,143.5C 162.351,144.552 162.517,145.552 163,146.5C 164.351,144.981 165.851,143.648 167.5,142.5C 169.952,145.284 171.952,144.951 173.5,141.5C 174.833,142.5 176.167,143.5 177.5,144.5C 179.332,143.752 180.999,142.752 182.5,141.5C 182.833,142 183.167,142.5 183.5,143C 182.132,144.873 180.466,146.54 178.5,148C 176.406,148.445 174.906,147.612 174,145.5C 171.966,148.859 169.632,149.192 167,146.5C 165.955,147.373 165.122,148.373 164.5,149.5 Z"/></g>
<g><path style="opacity:1" fill="#d1d2d1" d="M 48.5,145.5 C 49.1667,145.833 49.8333,146.167 50.5,146.5C 51.1667,148.167 51.8333,149.833 52.5,151.5C 43.1409,151.026 35.6409,154.693 30,162.5C 29.4719,163.816 29.9719,164.483 31.5,164.5C 30.075,165.922 29.075,167.589 28.5,169.5C 27.5318,171.607 27.1984,173.941 27.5,176.5C 26.6862,174.369 26.1862,172.036 26,169.5C 23.0226,173.443 21.1892,177.776 20.5,182.5C 20.3252,166.671 26.9919,154.838 40.5,147C 43.0627,145.921 45.7294,145.421 48.5,145.5 Z"/></g>
<g><path style="opacity:1" fill="#cccfce" d="M 62.5,145.5 C 64.1992,145.34 65.8659,145.506 67.5,146C 68.1029,148.071 69.4362,149.238 71.5,149.5C 71.9731,150.906 72.9731,151.573 74.5,151.5C 76.5293,153.858 78.5293,156.192 80.5,158.5C 81.1667,161.167 82.8333,162.833 85.5,163.5C 88.2994,165.164 90.9661,166.831 93.5,168.5C 98.7799,171.495 104.447,172.162 110.5,170.5C 113.345,171.114 116.012,172.114 118.5,173.5C 119.833,175.5 121.167,177.5 122.5,179.5C 122.5,179.833 122.5,180.167 122.5,180.5C 120.22,179.36 117.886,178.193 115.5,177C 108.437,176.84 101.437,176.173 94.5,175C 92.0038,173.92 89.6705,172.586 87.5,171C 83,165.167 77.8333,160 72,155.5C 71.6012,155.728 71.4346,156.062 71.5,156.5C 68.7279,153.306 65.7279,150.306 62.5,147.5C 62.5,146.833 62.5,146.167 62.5,145.5 Z"/></g>
<g><path style="opacity:1" fill="#73b9e0" d="M 88.5,147.5 C 86.588,151.417 84.2546,155.083 81.5,158.5C 81.1667,158.5 80.8333,158.5 80.5,158.5C 78.5293,156.192 76.5293,153.858 74.5,151.5C 74.8584,149.299 76.1917,147.965 78.5,147.5C 79.2494,149.012 80.416,150.012 82,150.5C 83.9896,149.182 85.9896,147.848 88,146.5C 88.3988,146.728 88.5654,147.062 88.5,147.5 Z"/></g>
<g><path style="opacity:0.266" fill="#e7e9e7" d="M 52.5,151.5 C 55.8333,155.833 59.1667,160.167 62.5,164.5C 64.0549,167.94 65.8882,171.273 68,174.5C 69.1096,176.037 70.6096,176.703 72.5,176.5C 73.6285,187.292 79.6285,192.292 90.5,191.5C 91.4916,191.672 92.1583,191.338 92.5,190.5C 93.0967,190.265 93.4301,189.765 93.5,189C 91.2861,185.034 89.4527,180.867 88,176.5C 86.117,173.976 83.617,172.642 80.5,172.5C 80.9465,169.99 80.2798,167.99 78.5,166.5C 77.2427,163.573 75.2427,161.239 72.5,159.5C 72.4431,158.391 72.1098,157.391 71.5,156.5C 71.4346,156.062 71.6012,155.728 72,155.5C 77.8333,160 83,165.167 87.5,171C 89.6705,172.586 92.0038,173.92 94.5,175C 101.437,176.173 108.437,176.84 115.5,177C 117.886,178.193 120.22,179.36 122.5,180.5C 123.136,189.396 122.136,198.063 119.5,206.5C 115.905,212.668 111.572,218.335 106.5,223.5C 104.147,224.34 102.147,225.674 100.5,227.5C 90.1453,232.835 79.1453,234.835 67.5,233.5C 53.8272,231.83 42.1605,226.163 32.5,216.5C 28.5637,210.29 24.897,203.957 21.5,197.5C 21.1667,194.833 20.8333,192.167 20.5,189.5C 20.5,187.167 20.5,184.833 20.5,182.5C 21.1892,177.776 23.0226,173.443 26,169.5C 26.1862,172.036 26.6862,174.369 27.5,176.5C 27.3284,177.492 27.6618,178.158 28.5,178.5C 28.427,180.027 29.0937,181.027 30.5,181.5C 31.2623,183.262 32.5956,184.262 34.5,184.5C 36.4621,186.017 38.7954,186.684 41.5,186.5C 43.3693,186.493 45.036,186.16 46.5,185.5C 51.0358,185.297 53.7024,182.964 54.5,178.5C 55.1558,177.378 55.4892,176.045 55.5,174.5C 55.639,172.117 54.9723,170.117 53.5,168.5C 52.5702,164.907 50.2368,163.241 46.5,163.5C 42.6888,162.355 38.6888,162.188 34.5,163C 33.944,163.383 33.6107,163.883 33.5,164.5C 32.8333,164.5 32.1667,164.5 31.5,164.5C 29.9719,164.483 29.4719,163.816 30,162.5C 35.6409,154.693 43.1409,151.026 52.5,151.5 Z M 93.5,224.5 C 95.2327,225.008 95.566,225.841 94.5,227C 91.6262,228.919 88.6262,229.419 85.5,228.5C 88.1479,226.962 90.8146,225.628 93.5,224.5 Z M 79.5,228.5 C 80.9778,228.238 82.3112,228.571 83.5,229.5C 82.8333,229.833 82.1667,230.167 81.5,230.5C 80.2867,230.253 79.62,229.586 79.5,228.5 Z"/></g>
<g><path style="opacity:1" fill="#6a6b6d" d="M 46.5,142.5 C 47.4013,143.29 48.0679,144.29 48.5,145.5C 45.7294,145.421 43.0627,145.921 40.5,147C 26.9919,154.838 20.3252,166.671 20.5,182.5C 20.5,184.833 20.5,187.167 20.5,189.5C 19.5655,190.568 19.2322,191.901 19.5,193.5C 18.5489,192.081 18.2155,190.415 18.5,188.5C 18.5,184.833 18.5,181.167 18.5,177.5C 20.5285,159.822 29.8619,148.155 46.5,142.5 Z"/></g>
<g><path style="opacity:1" fill="#439ed4" d="M 255.5,162.5 C 255.5,165.5 255.5,168.5 255.5,171.5C 241.547,182.803 225.547,189.136 207.5,190.5C 197.695,191.898 188.029,193.565 178.5,195.5C 169.801,196.04 161.468,197.706 153.5,200.5C 141.785,204.023 130.785,209.189 120.5,216C 116.226,220.274 112.726,225.107 110,230.5C 107.337,234.403 104.837,234.403 102.5,230.5C 102.5,229.5 102.5,228.5 102.5,227.5C 104.139,226.527 105.473,225.194 106.5,223.5C 111.572,218.335 115.905,212.668 119.5,206.5C 121.027,206.573 122.027,205.906 122.5,204.5C 130.911,199.472 139.911,195.805 149.5,193.5C 158.94,190.537 168.606,188.537 178.5,187.5C 185.848,185.692 193.181,184.359 200.5,183.5C 201.5,183.5 202.5,183.5 203.5,183.5C 205.752,183.916 207.252,185.249 208,187.5C 208.333,186.5 208.667,185.5 209,184.5C 209.333,184.833 209.667,185.167 210,185.5C 211.085,184.264 211.918,182.931 212.5,181.5C 224.804,179.517 236.138,175.017 246.5,168C 241.902,165.264 236.902,163.597 231.5,163C 223.173,162.5 214.84,162.334 206.5,162.5C 203.753,162.813 201.086,162.48 198.5,161.5C 196.826,159.57 196.493,157.57 197.5,155.5C 217.727,151.058 237.06,153.391 255.5,162.5 Z"/></g>
<g><path style="opacity:1" fill="#6d7579" d="M 80.5,158.5 C 80.8333,158.5 81.1667,158.5 81.5,158.5C 82.8333,160.167 84.1667,161.833 85.5,163.5C 82.8333,162.833 81.1667,161.167 80.5,158.5 Z"/></g>
<g><path style="opacity:1" fill="#73392e" d="M 46.5,163.5 C 42.1018,163.294 37.7685,163.627 33.5,164.5C 33.6107,163.883 33.944,163.383 34.5,163C 38.6888,162.188 42.6888,162.355 46.5,163.5 Z"/></g>
<g><path style="opacity:1" fill="#6a6866" d="M 72.5,159.5 C 75.2427,161.239 77.2427,163.573 78.5,166.5C 76.6366,164.295 74.3033,162.961 71.5,162.5C 72.1098,161.609 72.4431,160.609 72.5,159.5 Z"/></g>
<g><path style="opacity:1" fill="#ec614b" d="M 46.5,163.5 C 49.0667,164.717 51.4,166.384 53.5,168.5C 54.9723,170.117 55.639,172.117 55.5,174.5C 55.4892,176.045 55.1558,177.378 54.5,178.5C 52.4274,181.576 49.7608,183.91 46.5,185.5C 42.4659,185.495 38.4659,185.162 34.5,184.5C 33.7377,182.738 32.4044,181.738 30.5,181.5C 30.573,179.973 29.9063,178.973 28.5,178.5C 27.6618,178.158 27.3284,177.492 27.5,176.5C 27.1984,173.941 27.5318,171.607 28.5,169.5C 30.5,168.167 32.1667,166.5 33.5,164.5C 37.7685,163.627 42.1018,163.294 46.5,163.5 Z"/></g>
<g><path style="opacity:0.267" fill="#e7e9e7" d="M 71.5,162.5 C 74.3033,162.961 76.6366,164.295 78.5,166.5C 80.0635,169.132 79.7301,171.465 77.5,173.5C 75.2549,174.635 72.9216,175.135 70.5,175C 67.7225,172.397 66.0558,169.23 65.5,165.5C 67.8185,165.008 69.8185,164.008 71.5,162.5 Z"/></g>
<g><path style="opacity:1" fill="#7a6d6a" d="M 46.5,163.5 C 50.2368,163.241 52.5702,164.907 53.5,168.5C 51.4,166.384 49.0667,164.717 46.5,163.5 Z"/></g>
<g><path style="opacity:1" fill="#bcbcbc" d="M 106.5,165.5 C 107.675,165.281 108.675,165.614 109.5,166.5C 107.948,167.798 106.948,167.465 106.5,165.5 Z"/></g>
<g><path style="opacity:1" fill="#479ed2" d="M 143.5,166.5 C 148.176,166.847 149.509,169.18 147.5,173.5C 139.6,175.808 131.6,177.808 123.5,179.5C 123.167,179.5 122.833,179.5 122.5,179.5C 121.167,177.5 119.833,175.5 118.5,173.5C 118.5,173.167 118.5,172.833 118.5,172.5C 126.7,170.034 135.033,168.034 143.5,166.5 Z"/></g>
<g><path style="opacity:1" fill="#55322b" d="M 31.5,164.5 C 32.1667,164.5 32.8333,164.5 33.5,164.5C 32.1667,166.5 30.5,168.167 28.5,169.5C 29.075,167.589 30.075,165.922 31.5,164.5 Z"/></g>
<g><path style="opacity:1" fill="#a6a6a6" d="M 111.5,165.5 C 115.027,165.953 118.027,167.453 120.5,170C 118.177,169.694 115.844,169.028 113.5,168C 112.244,167.583 111.577,166.75 111.5,165.5 Z"/></g>
<g><path style="opacity:1" fill="#909394" d="M 93.5,168.5 C 96.5176,168.704 99.5176,169.037 102.5,169.5C 106.846,169.334 111.179,169.501 115.5,170C 116.942,170.377 117.942,171.21 118.5,172.5C 118.5,172.833 118.5,173.167 118.5,173.5C 116.012,172.114 113.345,171.114 110.5,170.5C 104.447,172.162 98.7799,171.495 93.5,168.5 Z"/></g>
<g><path style="opacity:1" fill="#848484" d="M 77.5,173.5 C 81.4257,173.047 84.5923,174.38 87,177.5C 88.5095,182.459 90.3429,186.792 92.5,190.5C 92.1583,191.338 91.4916,191.672 90.5,191.5C 84.9152,190.882 80.0818,188.549 76,184.5C 73.6535,180.337 74.1535,176.671 77.5,173.5 Z"/></g>
<g><path style="opacity:1" fill="#545454" d="M 78.5,166.5 C 80.2798,167.99 80.9465,169.99 80.5,172.5C 83.617,172.642 86.117,173.976 88,176.5C 89.4527,180.867 91.2861,185.034 93.5,189C 93.4301,189.765 93.0967,190.265 92.5,190.5C 90.3429,186.792 88.5095,182.459 87,177.5C 84.5923,174.38 81.4257,173.047 77.5,173.5C 79.7301,171.465 80.0635,169.132 78.5,166.5 Z"/></g>
<g><path style="opacity:1" fill="#499fd4" d="M 18.5,177.5 C 18.5,181.167 18.5,184.833 18.5,188.5C 15.4997,190.322 14.833,192.822 16.5,196C 18.1575,196.725 19.1575,196.225 19.5,194.5C 20.1667,195.5 20.8333,196.5 21.5,197.5C 21.767,199.965 22.4336,202.299 23.5,204.5C 21.2646,204.205 19.2646,204.539 17.5,205.5C 5.84357,201.934 3.34357,194.934 10,184.5C 12.4162,181.577 15.2496,179.243 18.5,177.5 Z"/></g>
<g><path style="opacity:1" fill="#49332f" d="M 28.5,178.5 C 29.9063,178.973 30.573,179.973 30.5,181.5C 29.0937,181.027 28.427,180.027 28.5,178.5 Z"/></g>
<g><path style="opacity:1" fill="#5f342b" d="M 30.5,181.5 C 32.4044,181.738 33.7377,182.738 34.5,184.5C 32.5956,184.262 31.2623,183.262 30.5,181.5 Z"/></g>
<g><path style="opacity:1" fill="#6c5b56" d="M 54.5,178.5 C 53.7024,182.964 51.0358,185.297 46.5,185.5C 49.7608,183.91 52.4274,181.576 54.5,178.5 Z"/></g>
<g><path style="opacity:1" fill="#535353" d="M 62.5,164.5 C 63.391,165.11 64.391,165.443 65.5,165.5C 66.0558,169.23 67.7225,172.397 70.5,175C 72.9216,175.135 75.2549,174.635 77.5,173.5C 74.1535,176.671 73.6535,180.337 76,184.5C 80.0818,188.549 84.9152,190.882 90.5,191.5C 79.6285,192.292 73.6285,187.292 72.5,176.5C 70.6096,176.703 69.1096,176.037 68,174.5C 65.8882,171.273 64.0549,167.94 62.5,164.5 Z"/></g>
<g><path style="opacity:1" fill="#e7604a" d="M 106.5,183.5 C 108.167,183.5 109.833,183.5 111.5,183.5C 113.951,185.896 114.951,188.896 114.5,192.5C 113.359,194.229 111.693,195.229 109.5,195.5C 108.274,195.48 107.274,195.147 106.5,194.5C 103.833,190.833 103.833,187.167 106.5,183.5 Z"/></g>
<g><path style="opacity:0.4" fill="#988885" d="M 111.5,183.5 C 112.583,183.539 113.583,183.873 114.5,184.5C 115.8,187.309 115.8,189.976 114.5,192.5C 114.951,188.896 113.951,185.896 111.5,183.5 Z"/></g>
<g><path style="opacity:1" fill="#532e27" d="M 34.5,184.5 C 38.4659,185.162 42.4659,185.495 46.5,185.5C 45.036,186.16 43.3693,186.493 41.5,186.5C 38.7954,186.684 36.4621,186.017 34.5,184.5 Z"/></g>
<g><path style="opacity:1" fill="#91564a" d="M 106.5,183.5 C 103.833,187.167 103.833,190.833 106.5,194.5C 105.504,194.586 104.671,194.252 104,193.5C 102.15,190.463 102.15,187.463 104,184.5C 104.671,183.748 105.504,183.414 106.5,183.5 Z"/></g>
<g><path style="opacity:1" fill="#a6a7a7" d="M 122.5,179.5 C 122.833,179.5 123.167,179.5 123.5,179.5C 125.084,187.825 124.417,195.991 121.5,204C 121.728,204.399 122.062,204.565 122.5,204.5C 122.027,205.906 121.027,206.573 119.5,206.5C 122.136,198.063 123.136,189.396 122.5,180.5C 122.5,180.167 122.5,179.833 122.5,179.5 Z"/></g>
<g><path style="opacity:1" fill="#343434" d="M 20.5,189.5 C 20.8333,192.167 21.1667,194.833 21.5,197.5C 20.8333,196.5 20.1667,195.5 19.5,194.5C 19.5,194.167 19.5,193.833 19.5,193.5C 19.2322,191.901 19.5655,190.568 20.5,189.5 Z"/></g>
<g><path style="opacity:1" fill="#77c8f2" d="M 207.5,190.5 C 211.806,194.635 216.306,198.635 221,202.5C 225.667,211.167 230.333,219.833 235,228.5C 236.695,231.695 239.195,234.028 242.5,235.5C 241.726,236.711 240.893,236.711 240,235.5C 238.892,240.596 237.392,240.763 235.5,236C 217.698,225.766 199.364,216.599 180.5,208.5C 181.097,203.706 180.43,199.373 178.5,195.5C 188.029,193.565 197.695,191.898 207.5,190.5 Z"/></g>
<g><path style="opacity:1" fill="#5b5434" d="M 42.5,192.5 C 41.2073,194.296 39.7073,195.963 38,197.5C 37.5026,200.146 37.3359,202.813 37.5,205.5C 34.3141,199.51 35.9808,195.177 42.5,192.5 Z"/></g>
<g><path style="opacity:1" fill="#f1da08" d="M 42.5,192.5 C 52.4997,190.508 57.1664,194.508 56.5,204.5C 54.4752,206.196 52.4752,207.863 50.5,209.5C 45.4061,210.336 41.0727,209.002 37.5,205.5C 37.3359,202.813 37.5026,200.146 38,197.5C 39.7073,195.963 41.2073,194.296 42.5,192.5 Z"/></g>
<g><path style="opacity:1" fill="#b4e4fd" d="M 178.5,195.5 C 180.43,199.373 181.097,203.706 180.5,208.5C 171.739,205.059 162.739,202.393 153.5,200.5C 161.468,197.706 169.801,196.04 178.5,195.5 Z"/></g>
<g><path style="opacity:1" fill="#717768" d="M 100.5,201.5 C 102.833,201.833 104.167,203.167 104.5,205.5C 102.833,204.5 101.5,203.167 100.5,201.5 Z"/></g>
<g><path style="opacity:1" fill="#4f6223" d="M 94.5,201.5 C 94.0269,202.906 93.0269,203.573 91.5,203.5C 91.9731,202.094 92.9731,201.427 94.5,201.5 Z"/></g>
<g><path style="opacity:1" fill="#9acb1a" d="M 94.5,201.5 C 96.5,201.5 98.5,201.5 100.5,201.5C 101.5,203.167 102.833,204.5 104.5,205.5C 105.193,209.753 104.193,213.419 101.5,216.5C 99.2362,217.219 96.9029,217.552 94.5,217.5C 94.0269,216.094 93.0269,215.427 91.5,215.5C 91.573,213.973 90.9063,212.973 89.5,212.5C 89.5,210.5 89.5,208.5 89.5,206.5C 90.9063,206.027 91.573,205.027 91.5,203.5C 93.0269,203.573 94.0269,202.906 94.5,201.5 Z"/></g>
<g><path style="opacity:1" fill="#7c8186" d="M 23.5,204.5 C 23.5,204.833 23.5,205.167 23.5,205.5C 22.325,205.281 21.325,205.614 20.5,206.5C 21.4565,208.075 22.1231,209.742 22.5,211.5C 25.2077,215.107 24.8743,215.774 21.5,213.5C 19.659,211.151 18.3257,208.485 17.5,205.5C 19.2646,204.539 21.2646,204.205 23.5,204.5 Z"/></g>
<g><path style="opacity:1" fill="#465328" d="M 91.5,203.5 C 91.573,205.027 90.9063,206.027 89.5,206.5C 89.427,204.973 90.0937,203.973 91.5,203.5 Z"/></g>
<g><path style="opacity:1" fill="#514b32" d="M 37.5,205.5 C 41.0727,209.002 45.4061,210.336 50.5,209.5C 47.6965,210.638 44.6965,210.805 41.5,210C 39.249,209.252 37.9156,207.752 37.5,205.5 Z"/></g>
<g><path style="opacity:1" fill="#5d5842" d="M 56.5,204.5 C 55.7124,207.621 53.7124,209.288 50.5,209.5C 52.4752,207.863 54.4752,206.196 56.5,204.5 Z"/></g>
<g><path style="opacity:1" fill="#414a51" d="M 21.5,197.5 C 24.897,203.957 28.5637,210.29 32.5,216.5C 29.1285,214.064 26.4619,211.064 24.5,207.5C 24.1667,206.833 23.8333,206.167 23.5,205.5C 23.5,205.167 23.5,204.833 23.5,204.5C 22.4336,202.299 21.767,199.965 21.5,197.5 Z"/></g>
<g><path style="opacity:1" fill="#476371" d="M 76.5,207.5 C 72.2273,207.081 68.2273,207.748 64.5,209.5C 67.9379,205.149 71.9379,204.483 76.5,207.5 Z"/></g>
<g><path style="opacity:1" fill="#63c1ea" d="M 76.5,207.5 C 79.78,210.405 81.1133,214.071 80.5,218.5C 76.9151,224.426 71.9151,225.926 65.5,223C 61.9121,218.724 61.5788,214.224 64.5,209.5C 68.2273,207.748 72.2273,207.081 76.5,207.5 Z"/></g>
<g><path style="opacity:1" fill="#3f4f57" d="M 76.5,207.5 C 78.7525,207.916 80.2525,209.249 81,211.5C 81.7958,214.039 81.6291,216.372 80.5,218.5C 81.1133,214.071 79.78,210.405 76.5,207.5 Z"/></g>
<g><path style="opacity:1" fill="#82caf0" d="M 24.5,207.5 C 26.4619,211.064 29.1285,214.064 32.5,216.5C 33.7872,219.453 35.7872,221.786 38.5,223.5C 31.4716,225.847 24.8049,229.014 18.5,233C 16.208,236.416 14.0414,239.916 12,243.5C 11.8446,241.144 11.8446,238.811 12,236.5C 11.586,236.957 11.086,237.291 10.5,237.5C 10.1667,236.833 9.83333,236.167 9.5,235.5C 7.80197,236.681 6.1353,236.681 4.5,235.5C 7.16667,234.167 9.83333,232.833 12.5,231.5C 16.0594,225.715 19.0594,219.715 21.5,213.5C 24.8743,215.774 25.2077,215.107 22.5,211.5C 24.1042,210.713 24.7709,209.38 24.5,207.5 Z"/></g>
<g><path style="opacity:1" fill="#5a604b" d="M 89.5,212.5 C 90.9063,212.973 91.573,213.973 91.5,215.5C 90.0937,215.027 89.427,214.027 89.5,212.5 Z"/></g>
<g><path style="opacity:1" fill="#48532d" d="M 91.5,215.5 C 93.0269,215.427 94.0269,216.094 94.5,217.5C 92.9731,217.573 91.9731,216.906 91.5,215.5 Z"/></g>
<g><path style="opacity:1" fill="#888a84" d="M 101.5,216.5 C 100.848,217.725 99.6811,218.392 98,218.5C 96.6153,218.486 95.4486,218.152 94.5,217.5C 95.4486,218.152 96.6153,218.486 98,218.5C 99.6811,218.392 100.848,217.725 101.5,216.5 Z"/></g>
<g><path style="opacity:1" fill="#325e73" d="M 25.5,217.5 C 26.9953,217.415 27.9953,218.081 28.5,219.5C 26.6043,220.639 25.6043,219.973 25.5,217.5 Z"/></g>
<g><path style="opacity:1" fill="#6a6d6e" d="M 32.5,216.5 C 42.1605,226.163 53.8272,231.83 67.5,233.5C 66.4324,234.434 65.099,234.768 63.5,234.5C 54.0164,233.254 45.683,229.587 38.5,223.5C 35.7872,221.786 33.7872,219.453 32.5,216.5 Z"/></g>
<g><path style="opacity:1" fill="#374850" d="M 64.5,209.5 C 61.5788,214.224 61.9121,218.724 65.5,223C 71.9151,225.926 76.9151,224.426 80.5,218.5C 80.2007,221.642 78.5341,223.809 75.5,225C 64.3333,227.167 59.8333,222.667 62,211.5C 62.7083,210.619 63.5416,209.953 64.5,209.5 Z"/></g>
<g><path style="opacity:1" fill="#435869" d="M 106.5,223.5 C 105.473,225.194 104.139,226.527 102.5,227.5C 101.833,227.5 101.167,227.5 100.5,227.5C 102.147,225.674 104.147,224.34 106.5,223.5 Z"/></g>
<g><path style="opacity:1" fill="#8d8e8d" d="M 100.5,227.5 C 101.167,227.5 101.833,227.5 102.5,227.5C 102.5,228.5 102.5,229.5 102.5,230.5C 101.778,230.082 101.278,229.416 101,228.5C 89.1384,235.207 76.6384,237.207 63.5,234.5C 65.099,234.768 66.4324,234.434 67.5,233.5C 79.1453,234.835 90.1453,232.835 100.5,227.5 Z"/></g>
</svg>
